<?xml version="1.0" encoding="UTF-8" standalone="no"?>
<!-- Created with Inkscape (http://www.inkscape.org/) -->

<svg
   xmlns:dc="http://purl.org/dc/elements/1.1/"
   xmlns:cc="http://creativecommons.org/ns#"
   xmlns:rdf="http://www.w3.org/1999/02/22-rdf-syntax-ns#"
   xmlns:svg="http://www.w3.org/2000/svg"
   xmlns="http://www.w3.org/2000/svg"
   xmlns:xlink="http://www.w3.org/1999/xlink"
   xmlns:sodipodi="http://sodipodi.sourceforge.net/DTD/sodipodi-0.dtd"
   xmlns:inkscape="http://www.inkscape.org/namespaces/inkscape"
   version="1.1"
   width="84"
   height="84"
   id="svg2"
   style="enable-background:new"
   inkscape:version="0.92.4 (5da689c313, 2019-01-14)"
   sodipodi:docname="kteatime.svg">
  <sodipodi:namedview
     pagecolor="#ffffff"
     bordercolor="#666666"
     borderopacity="1"
     objecttolerance="10"
     gridtolerance="10"
     guidetolerance="10"
     inkscape:pageopacity="0"
     inkscape:pageshadow="2"
     inkscape:window-width="1280"
     inkscape:window-height="977"
     id="namedview19"
     showgrid="false"
     inkscape:zoom="5.2942708"
     inkscape:cx="11.357198"
     inkscape:cy="54.314476"
     inkscape:window-x="0"
     inkscape:window-y="0"
     inkscape:window-maximized="1"
     inkscape:current-layer="svg2" />
  <defs
     id="defs4">
    <linearGradient
       id="linearGradient5308">
      <stop
         id="stop5310"
         style="stop-color:#ffffff;stop-opacity:1"
         offset="0" />
      <stop
         id="stop5316"
         style="stop-color:#ffffff;stop-opacity:0.78431374"
         offset="0.5" />
      <stop
         id="stop5318"
         style="stop-color:#ffffff;stop-opacity:0.58823532;"
         offset="0.75" />
      <stop
         id="stop5312"
         style="stop-color:#ffffff;stop-opacity:1"
         offset="1" />
    </linearGradient>
    <marker
       refX="0"
       refY="0"
       orient="auto"
       id="Arrow1Lstart"
       style="overflow:visible">
      <path
         d="M 0,0 5,-5 -12.5,0 5,5 0,0 z"
         transform="matrix(0.8,0,0,0.8,10,0)"
         id="path3780"
         style="fill-rule:evenodd;stroke:#000000;stroke-width:1pt;marker-start:none" />
    </marker>
    <linearGradient
       x1="-54.967957"
       y1="-2.4795158"
       x2="11.987664"
       y2="-2.4795158"
       id="linearGradient3809"
       xlink:href="#linearGradient5308"
       gradientUnits="userSpaceOnUse" />
  </defs>
  <metadata
     id="metadata7">
    <rdf:RDF>
      <cc:Work
         rdf:about="">
        <dc:format>image/svg+xml</dc:format>
        <dc:type
           rdf:resource="http://purl.org/dc/dcmitype/StillImage" />
        <dc:title />
      </cc:Work>
    </rdf:RDF>
  </metadata>
  <g
     transform="translate(-5.636251,16.970692)"
     id="layer1">
    <g
       transform="translate(69.116067,27.462611)"
       id="kteatime">
      <rect
         width="84"
         height="84"
         x="-63.479816"
         y="-44.433304"
         id="rect3778"
         style="fill:none;stroke:none" />
      <path
         d="m 32.6875,12 c -5.706398,0 -10.860938,0.730567 -14.4375,1.875 -1.788281,0.572216 -3.196199,1.266652 -4,1.875 -0.803801,0.608347 -0.875,0.976628 -0.875,1.09375 0,0.117122 0.0712,0.485402 0.875,1.09375 0.803801,0.608348 2.211719,1.302784 4,1.875 3.576562,1.144433 8.731102,1.875 14.4375,1.875 5.706397,0 10.860938,-0.730567 14.4375,-1.875 1.788281,-0.572216 3.196199,-1.266652 4,-1.875 C 51.928801,17.329152 52,16.960872 52,16.84375 52,16.726628 51.9288,16.358347 51.125,15.75 50.321199,15.141652 48.913281,14.447216 47.125,13.875 43.548438,12.730567 38.393897,12 32.6875,12 z m 26,8.1875 c -0.474429,-0.01415 -1.796332,0.347717 -3,1.40625 -0.287457,2.781542 -1.692882,7.826622 -2.3125,9.3125 2.587312,-1.341403 5.608059,-3.120264 7.25,-5.15625 0.816537,-1.012494 0.954473,-2.483168 0.5,-3.6875 -0.454473,-1.204332 -1.24583,-1.839458 -2.4375,-1.875 z m -46.125,12.21875 c -5.763383,2.508258 -7.780513,5.112142 -8.21875,7.71875 -0.222041,1.320692 0.0705,2.619464 1.0625,4.0625 0.992003,1.443036 2.717098,2.971305 5.3125,4.375 10.382184,5.615089 29.786202,6.395495 42.15625,1.5 6.185005,-2.44774 9.174404,-5.691555 9.625,-8.34375 0.225298,-1.326098 -0.07341,-2.64911 -1.0625,-4.09375 -0.937677,-1.36954 -3.166286,-3.047504 -4.78125,-3.9375 -0.53107,0.263396 -0.791991,0.378513 -1.59375,0.78125 -2.853815,1.433519 -4.46875,2 -4.46875,2 C 45.952104,43.708177 39.815051,47.64931 32.65625,47.6875 25.367845,47.72639 16.749396,42.768791 12.5625,32.40625 z"
         transform="translate(-54.961468,-35.143971)"
         id="rect3772"
         style="fill:#000000;fill-opacity:0.39215686;stroke:none" />
      <path
         d="m -22.25,-29.4375 c -6.248587,0 -11.920069,0.793256 -16.375,2.21875 -2.215681,0.708977 -4.205852,1.549225 -5.875,2.8125 -1.691893,1.280489 -3.362422,3.337056 -3.40625,6.0625 -6.8e-5,0.01042 -6.8e-5,0.02083 0,0.03125 -0.0034,3.751248 0.544599,7.503511 1.375,10.6875 -5.685368,2.8829326 -9.518242,6.92557906 -10.1875,11.8125 -0.395811,2.890212 0.289218,5.934669 2.03125,8.46875 1.699552,2.472286 4.179926,4.536328 7.40625,6.28125 12.906087,6.980114 33.161292,7.405053 47.6875,1.65625 7.2451632,-2.867302 12.299506,-7.162552 13.3125,-13.125 C 14.226504,4.4801237 13.426678,1.3154139 11.5,-1.1875 10.548145,-2.4240385 9.7338825,-3.2616337 9,-3.9375 c 0.4879273,-0.4661136 1.006527,-0.802857 1.53125,-1.4375 1.237882,-1.4971965 1.871591,-3.2330256 2.09375,-4.9375 0.222159,-1.704475 0.03066,-3.428155 -0.5625,-5 -1.208437,-3.2023 -4.3271322,-6.091049 -8.46875,-5.9375 -0.4323561,0.01603 -0.8804352,0.168245 -1.21875,0.21875 -0.640535,-1.386655 -1.3064191,-2.566257 -2.375,-3.375 -1.6691476,-1.263275 -3.6593191,-2.103523 -5.875,-2.8125 -4.454931,-1.425494 -10.126414,-2.21875 -16.375,-2.21875 z"
         id="path3767"
         style="fill:#b48ead;stroke:#5e81ac;stroke-width:5;stroke-miterlimit:4;stroke-opacity:0.39215687;marker-mid:none;fill-opacity:1" />
      <path
         d="m -22.261355,-23.132963 c -5.706398,0 -10.860938,0.730567 -14.4375,1.875 -1.788281,0.572216 -3.196199,1.266652 -4,1.875 -0.803801,0.608347 -0.875,0.976627 -0.875,1.093749 0,0.117122 0.0712,0.485402 0.875,1.09375 0.803801,0.608348 2.211719,1.302784 4,1.875 3.576562,1.144433 8.731102,1.875 14.4375,1.875 5.706397,0 10.860938,-0.730567 14.4375003,-1.875 1.788281,-0.572216 3.196199,-1.266652 4,-1.875 0.803801,-0.608348 0.875,-0.976628 0.875,-1.09375 0,-0.117122 -0.0712,-0.485402 -0.875,-1.093749 -0.803801,-0.608348 -2.211719,-1.302784 -4,-1.875 -3.5765623,-1.144433 -8.7311033,-1.875 -14.4375003,-1.875 z M 9.6265895,0.23445357 C 11.132084,2.1902159 11.762997,4.7779369 11.37659,7.0523159 10.550785,11.912977 6.3786225,15.671854 -0.47788367,18.385343 -14.226224,23.826302 -34.165469,23.308847 -46.143937,16.830425 c -2.986701,-1.615325 -5.138015,-3.419522 -6.580806,-5.518305 -1.393195,-2.0266381 -1.971835,-4.5548371 -1.661612,-6.8200831 0.583451,-4.26035733 4.309383,-8.1713843 10.587093,-10.8770973 -1.038045,-3.0253041 -1.731618,-7.6709086 -1.727718,-11.9354036 0.02831,-1.760471 1.107605,-3.169158 2.453125,-4.187499 1.353504,-1.024384 3.091483,-1.808063 5.15625,-2.46875 4.129534,-1.321373 9.610134,-2.09375 15.65625,-2.09375 6.046115,0 11.526716,0.772377 15.6562503,2.09375 2.064767,0.660687 3.802746,1.444366 5.15625,2.46875 1.35350403,1.024384 2.46875,2.482694 2.44500303,4.220703 1.00210097,-0.349613 1.20796797,-0.541129 2.67999717,-0.595704 2.971146,-0.110154 5.249757,2.004088 6.15625,4.40625 0.4532475,1.201081 0.6249645,2.542213 0.4529805,3.861729 -0.171984,1.3195135 -0.6876705,2.6174106 -1.6092305,3.7320216 -1.147914,1.388382 -1.932485,2.051543 -3.277708,3.08479 1.227132,0.896863 2.312234,1.54369 4.228152,4.03262697 z m -9.51294417,-0.898667 C -2.7401697,0.76930557 -4.3555317,1.3239969 -4.3555317,1.3239969 -8.9971777,8.5634239 -15.133804,12.516347 -22.292605,12.554537 c -7.288405,0.03889 -15.918313,-4.9277151 -20.105209,-15.2902564 -5.763383,2.50825797 -7.769054,5.1211483 -8.207291,7.7277563 -0.222041,1.320692 0.0705,2.619464 1.0625,4.0625 0.992003,1.4430361 2.717098,2.9713051 5.3125,4.3750001 10.382184,5.615089 29.786202,6.395495 42.1562503,1.5 6.1850052,-2.44774 9.1744042,-5.6915551 9.6250002,-8.3437501 0.225298,-1.326098 -0.07341,-2.64911 -1.0625,-4.09375 -0.937677,-1.36954 -3.172707,-3.06439533 -4.7876712,-3.9543913 -0.53107,0.263396 -0.78556997,0.395404 -1.58732897,0.79814097 z M -1.5826787,-4.2399654 c 2.587312,-1.341403 5.6168832,-3.107012 7.2588242,-5.1429981 0.816537,-1.0124945 0.954473,-2.4831685 0.5,-3.6875005 -0.454473,-1.204332 -1.24583,-1.839458 -2.4375,-1.875 -0.474429,-0.01415 -1.8048902,0.334783 -3.00855817,1.393316 -0.287457,2.781542 -1.693148,7.8263046 -2.31276603,9.3121826 z"
         id="path3790"
         style="fill:#a1b4ba;fill-opacity:1;fill-rule:nonzero;stroke:none;stroke-width:1;marker-mid:none" />
    </g>
  </g>
</svg>
