<?xml version="1.0" encoding="UTF-8" standalone="no"?>
<!-- Generator: Adobe Illustrator 14.0.0, SVG Export Plug-In . SVG Version: 6.00 Build 43363)  -->

<svg
   xmlns:dc="http://purl.org/dc/elements/1.1/"
   xmlns:cc="http://creativecommons.org/ns#"
   xmlns:rdf="http://www.w3.org/1999/02/22-rdf-syntax-ns#"
   xmlns:svg="http://www.w3.org/2000/svg"
   xmlns="http://www.w3.org/2000/svg"
   xmlns:xlink="http://www.w3.org/1999/xlink"
   xmlns:sodipodi="http://sodipodi.sourceforge.net/DTD/sodipodi-0.dtd"
   xmlns:inkscape="http://www.inkscape.org/namespaces/inkscape"
   version="1.1"
   id="Layer_1"
   x="0px"
   y="0px"
   width="7.588819"
   height="7.588819"
   viewBox="0 0 7.588819 7.588819"
   enable-background="new 0 0 612 792"
   xml:space="preserve"
   sodipodi:docname="start.svg"
   inkscape:version="0.92.4 (5da689c313, 2019-01-14)"><metadata
   id="metadata17"><rdf:RDF><cc:Work
       rdf:about=""><dc:format>image/svg+xml</dc:format><dc:type
         rdf:resource="http://purl.org/dc/dcmitype/StillImage" /><dc:title /></cc:Work></rdf:RDF></metadata><defs
   id="defs15"><linearGradient
     inkscape:collect="always"
     id="linearGradient823"><stop
       style="stop-color:#b48ead;stop-opacity:1;"
       offset="0"
       id="stop819" /><stop
       style="stop-color:#5e81ac;stop-opacity:1"
       offset="1"
       id="stop821" /></linearGradient><linearGradient
     inkscape:collect="always"
     xlink:href="#linearGradient823"
     id="linearGradient825"
     x1="220.03288"
     y1="382.78637"
     x2="317.52338"
     y2="383.38803"
     gradientUnits="userSpaceOnUse" /><linearGradient
     inkscape:collect="always"
     xlink:href="#linearGradient823"
     id="linearGradient833"
     x1="307.67227"
     y1="411.17163"
     x2="390.72211"
     y2="409.96832"
     gradientUnits="userSpaceOnUse" /><linearGradient
     inkscape:collect="always"
     xlink:href="#linearGradient823"
     id="linearGradient841"
     x1="290.85199"
     y1="396.418"
     x2="320.073"
     y2="396.418"
     gradientUnits="userSpaceOnUse" /></defs><sodipodi:namedview
   pagecolor="#ffffff"
   bordercolor="#666666"
   borderopacity="1"
   objecttolerance="10"
   gridtolerance="10"
   guidetolerance="10"
   inkscape:pageopacity="0"
   inkscape:pageshadow="2"
   inkscape:window-width="1920"
   inkscape:window-height="1031"
   id="namedview13"
   showgrid="false"
   showguides="false"
   inkscape:zoom="42.217001"
   inkscape:cx="-0.64599477"
   inkscape:cy="3.9436737"
   inkscape:window-x="0"
   inkscape:window-y="0"
   inkscape:window-maximized="1"
   inkscape:current-layer="Layer_1" />
<g
   id="start-here-kde"
   transform="matrix(0.03937008,0,0,0.03937008,-8.2283467,-11.811024)">    
   id=&quot;g10&quot;&gt;
	<polygon
   points="401.756,492.756 209,492.756 209,300 401.756,300 "
   id="polygon2"
   style="clip-rule:evenodd;opacity:0.01000001;fill:#ffffff;fill-rule:evenodd" />
	<path
   d="m 271.875,326.809 c 15.657,-13.917 37.953,-15.619 37.953,-15.619 0,0 -24.686,-2.687 -44.166,10.58 -18.979,12.927 -25.76,29.778 -29.053,45.51 -6.045,28.884 8.062,53.907 8.062,53.907 0,0 -8.733,-8.061 -12.931,-19.313 -3.446,-9.235 -4.194,-19.188 -3.023,-30.061 1.175,-10.916 6.381,-24.013 6.381,-24.013 0,0 -16.625,20.991 -14.946,47.356 1.264,19.833 11.084,42.991 33.923,53.739 24.263,11.418 45.174,4.029 57.265,-7.391 16.407,-15.494 12.764,-34.09 17.97,-41.646 4.866,-7.065 6.884,-5.877 6.884,-5.877 0,0 -3.563,-3.13 -10.914,-0.504 -9.405,3.36 -9.741,9.573 -17.971,17.801 -7.305,7.305 -25.693,9.572 -34.593,-7.559 -5.094,-9.802 -4.88,-29 4.535,-45.004 13.434,-22.839 35.114,-28.765 43.662,-30.06 11.083,-1.68 22.335,0.671 33.419,5.877 14.684,6.897 26.365,21.663 26.365,21.663 0,0 -13.267,-26.869 -37.617,-34.594 -23.083,-7.323 -39.128,-3.022 -55.753,6.213 -13.603,7.557 -24.854,22.335 -29.389,36.106 -7.956,24.161 -2.402,41.814 -2.402,41.814 0,0 -11.2,-13.77 -6.33,-41.479 3.07,-17.477 10.578,-26.698 22.669,-37.446 z"
   id="path4"
   style="clip-rule:evenodd;fill:url(#linearGradient825);fill-opacity:1;fill-rule:evenodd"
   inkscape:connector-curvature="0" />
	<path
   d="m 290.852,401.707 c 0,0 3.023,2.688 8.229,2.688 5.71,0 8.482,-3.092 11.084,-6.215 1.679,-2.015 3.423,-4.081 6.214,-5.709 2.014,-1.175 3.694,-1.511 3.694,-1.511 0,0 -2.521,-2.519 -8.397,-2.519 -5.207,0 -7.221,2.351 -10.58,5.709 -2.525,2.524 -3.863,4.366 -5.709,5.709 -2.563,1.864 -4.535,1.848 -4.535,1.848 z"
   id="path6"
   style="clip-rule:evenodd;fill:url(#linearGradient841);fill-opacity:1.0;fill-rule:evenodd"
   inkscape:connector-curvature="0" />
	<path
   d="m 338.881,465.947 c -15.657,13.916 -37.953,15.617 -37.953,15.617 0,0 24.685,2.688 44.166,-10.578 18.979,-12.928 25.759,-29.779 29.053,-45.512 6.046,-28.884 -8.061,-53.906 -8.061,-53.906 0,0 8.732,8.061 12.931,19.313 3.445,9.234 4.193,19.189 3.022,30.06 -1.175,10.916 -6.382,24.014 -6.382,24.014 0,0 16.625,-20.992 14.946,-47.355 -1.264,-19.834 -11.084,-42.992 -33.923,-53.74 -24.263,-11.417 -45.174,-4.03 -57.265,7.39 -16.406,15.494 -12.763,34.09 -17.968,41.647 -4.867,7.064 -6.885,5.879 -6.885,5.879 0,0 3.563,3.129 10.915,0.504 9.405,-3.36 9.74,-9.574 17.97,-17.802 7.306,-7.305 25.692,-9.572 34.593,7.558 5.095,9.803 4.882,29 -4.533,45.004 -13.435,22.84 -35.115,28.766 -43.663,30.061 -11.084,1.68 -22.335,-0.67 -33.419,-5.877 -14.684,-6.898 -26.366,-21.664 -26.366,-21.664 0,0 13.268,26.871 37.617,34.596 23.083,7.322 39.128,3.021 55.754,-6.215 13.603,-7.557 24.854,-22.334 29.389,-36.105 7.955,-24.162 2.401,-41.814 2.401,-41.814 0,0 11.201,13.77 6.331,41.479 -3.072,17.478 -10.578,26.698 -22.67,37.446 z"
   id="path8"
   style="clip-rule:evenodd;fill:url(#linearGradient833);fill-opacity:1;fill-rule:evenodd"
   inkscape:connector-curvature="0" />
</g>
</svg>