<?xml version="1.0" encoding="UTF-8" standalone="no"?>
<!-- Created with Inkscape (http://www.inkscape.org/) -->

<svg
   xmlns:dc="http://purl.org/dc/elements/1.1/"
   xmlns:cc="http://creativecommons.org/ns#"
   xmlns:rdf="http://www.w3.org/1999/02/22-rdf-syntax-ns#"
   xmlns:svg="http://www.w3.org/2000/svg"
   xmlns="http://www.w3.org/2000/svg"
   xmlns:sodipodi="http://sodipodi.sourceforge.net/DTD/sodipodi-0.dtd"
   xmlns:inkscape="http://www.inkscape.org/namespaces/inkscape"
   version="1.0"
   width="16"
   height="16"
   id="svg2"
   sodipodi:docname="checkmarks.svg"
   inkscape:version="0.92.4 (5da689c313, 2019-01-14)">
  <sodipodi:namedview
     pagecolor="#ffffff"
     bordercolor="#666666"
     borderopacity="1"
     objecttolerance="10"
     gridtolerance="10"
     guidetolerance="10"
     inkscape:pageopacity="0"
     inkscape:pageshadow="2"
     inkscape:window-width="1280"
     inkscape:window-height="977"
     id="namedview12"
     showgrid="false"
     inkscape:zoom="7.375"
     inkscape:cx="-7.7665318"
     inkscape:cy="6.7348692"
     inkscape:window-x="0"
     inkscape:window-y="0"
     inkscape:window-maximized="1"
     inkscape:current-layer="svg2" />
  <defs
     id="defs4" />
  <metadata
     id="metadata7">
    <rdf:RDF>
      <cc:Work
         rdf:about="">
        <dc:format>image/svg+xml</dc:format>
        <dc:type
           rdf:resource="http://purl.org/dc/dcmitype/StillImage" />
        <dc:title />
      </cc:Work>
    </rdf:RDF>
  </metadata>
  <g
     transform="translate(0,-64)"
     id="layer1">
    <g
       transform="translate(18,0)"
       id="checkbox">
      <rect
         width="16"
         height="16"
         rx="16.456314"
         ry="0"
         x="0"
         y="64"
         id="rect3706"
         style="opacity:0;fill:#7d7d7d;fill-opacity:1;fill-rule:nonzero;stroke:none" />
      <path
         d="m 12.000245,67.5625 c -0.352513,0.009 -0.723,0.1605 -1,0.4375 l -4.0000005,4 -2,-2 c -0.5540004,-0.554 -1.4110446,-0.588955 -1.9375,-0.0625 l -0.125,0.125 C 2.4112891,70.588955 2.4462441,71.446 3.0002445,72 l 2.78125,2.75 c 0.048695,0.07525 0.090443,0.121693 0.15625,0.1875 l 0.0625,0.0625 0.0625,0.0625 c 0.050079,0.04454 0.1022254,0.08849 0.15625,0.125 0.013297,0.0093 0.01768,0.02247 0.03125,0.03125 0.067063,0.04258 0.1474867,0.06325 0.21875,0.09375 0.062373,0.02626 0.1221939,0.04626 0.1875,0.0625 0.022546,0.0061 0.039786,0.02628 0.0625,0.03125 0.172757,0.03346 0.3555774,0.03464 0.53125,0 0.033039,-0.0056 0.061222,-0.02316 0.09375,-0.03125 0.237331,-0.0643 0.4665238,-0.185274 0.65625,-0.375 l 0.0625,-0.0625 c 0.065807,-0.06581 0.107555,-0.11225 0.15625,-0.1875 L 13.000245,70 c 0.554,-0.554 0.588955,-1.411045 0.0625,-1.9375 l -0.125,-0.125 c -0.263228,-0.263228 -0.584987,-0.383987 -0.9375,-0.375 z"
         id="rect2910"
         style="fill:#b48ead;fill-opacity:1;fill-rule:nonzero;stroke:none" />
    </g>
    <g
       id="radiobutton">
      <rect
         width="16"
         height="16"
         rx="87.767006"
         ry="0"
         x="0"
         y="64"
         id="rect3736"
         style="opacity:0;fill:#9f9f9f;fill-opacity:1;fill-rule:nonzero;stroke:none" />
      <path
         d="M 11,8 A 2.5,2 0 1 1 6,8 2.5,2 0 1 1 11,8 z"
         transform="matrix(1.6,0,0,2,-5.6,56)"
         id="path3716"
         style="fill:#b48ead;fill-opacity:1;fill-rule:nonzero;stroke:none" />
    </g>
  </g>
</svg>
